<?xml version="1.0" encoding="UTF-8" standalone="no"?><svg xmlns="http://www.w3.org/2000/svg" xmlns:xlink="http://www.w3.org/1999/xlink" contentScriptType="application/ecmascript" contentStyleType="text/css" height="586px" preserveAspectRatio="none" style="width:599px;height:586px;" version="1.1" viewBox="0 0 599 586" width="599px" zoomAndPan="magnify"><defs><filter height="300%" id="f1rfrs6qnal0ww" width="300%" x="-1" y="-1"><feGaussianBlur result="blurOut" stdDeviation="2.0"/><feColorMatrix in="blurOut" result="blurOut2" type="matrix" values="0 0 0 0 0 0 0 0 0 0 0 0 0 0 0 0 0 0 .4 0"/><feOffset dx="4.0" dy="4.0" in="blurOut2" result="blurOut3"/><feBlend in="SourceGraphic" in2="blurOut3" mode="normal"/></filter></defs><g><ellipse cx="338.875" cy="20" fill="#000000" filter="url(#f1rfrs6qnal0ww)" rx="10" ry="10" style="stroke: none; stroke-width: 1.0;"/><rect fill="#FEFECE" filter="url(#f1rfrs6qnal0ww)" height="33.9688" rx="12.5" ry="12.5" style="stroke: #A80036; stroke-width: 1.5;" width="109" x="284.375" y="98.4023"/><text fill="#000000" font-family="sans-serif" font-size="12" lengthAdjust="spacingAndGlyphs" textLength="89" x="294.375" y="119.541">设置code=600</text><rect fill="#FEFECE" filter="url(#f1rfrs6qnal0ww)" height="33.9688" rx="12.5" ry="12.5" style="stroke: #A80036; stroke-width: 1.5;" width="195" x="241.375" y="152.3711"/><text fill="#000000" font-family="sans-serif" font-size="12" lengthAdjust="spacingAndGlyphs" textLength="175" x="251.375" y="173.5098">设置message=用户名不能为空</text><ellipse cx="338.875" cy="216.3398" fill="#FFFFFF" filter="url(#f1rfrs6qnal0ww)" rx="10" ry="10" style="stroke: #000000; stroke-width: 1.5;"/><line style="stroke: #000000; stroke-width: 2.5;" x1="332.6878" x2="345.0622" y1="210.1527" y2="222.527"/><line style="stroke: #000000; stroke-width: 2.5;" x1="345.0622" x2="332.6878" y1="210.1527" y2="222.527"/><polygon fill="#FEFECE" filter="url(#f1rfrs6qnal0ww)" points="311.375,50,366.375,50,378.375,62,366.375,74,311.375,74,299.375,62,311.375,50" style="stroke: #A80036; stroke-width: 1.5;"/><text fill="#000000" font-family="sans-serif" font-size="11" lengthAdjust="spacingAndGlyphs" textLength="23" x="342.875" y="84.2104">true</text><text fill="#000000" font-family="sans-serif" font-size="11" lengthAdjust="spacingAndGlyphs" textLength="55" x="311.375" y="65.8081">用户名为空</text><polygon fill="#FEFECE" filter="url(#f1rfrs6qnal0ww)" points="311.375,268.3398,366.375,268.3398,378.375,280.3398,366.375,292.3398,311.375,292.3398,299.375,280.3398,311.375,268.3398" style="stroke: #A80036; stroke-width: 1.5;"/><text fill="#000000" font-family="sans-serif" font-size="11" lengthAdjust="spacingAndGlyphs" textLength="55" x="311.375" y="284.1479">密码不为空</text><text fill="#000000" font-family="sans-serif" font-size="11" lengthAdjust="spacingAndGlyphs" textLength="23" x="276.375" y="277.7456">true</text><text fill="#000000" font-family="sans-serif" font-size="11" lengthAdjust="spacingAndGlyphs" textLength="28" x="378.375" y="277.7456">false</text><rect fill="#FEFECE" filter="url(#f1rfrs6qnal0ww)" height="33.9688" rx="12.5" ry="12.5" style="stroke: #A80036; stroke-width: 1.5;" width="138" x="112.25" y="302.3398"/><text fill="#000000" font-family="sans-serif" font-size="12" lengthAdjust="spacingAndGlyphs" textLength="118" x="122.25" y="323.4785">调用 DAO 用户名判断</text><polygon fill="#FEFECE" filter="url(#f1rfrs6qnal0ww)" points="164.75,356.3086,197.75,356.3086,209.75,368.3086,197.75,380.3086,164.75,380.3086,152.75,368.3086,164.75,356.3086" style="stroke: #A80036; stroke-width: 1.5;"/><text fill="#000000" font-family="sans-serif" font-size="11" lengthAdjust="spacingAndGlyphs" textLength="33" x="164.75" y="372.1167">不存在</text><text fill="#000000" font-family="sans-serif" font-size="11" lengthAdjust="spacingAndGlyphs" textLength="23" x="129.75" y="365.7144">true</text><text fill="#000000" font-family="sans-serif" font-size="11" lengthAdjust="spacingAndGlyphs" textLength="28" x="209.75" y="365.7144">false</text><rect fill="#FEFECE" filter="url(#f1rfrs6qnal0ww)" height="33.9688" rx="12.5" ry="12.5" style="stroke: #A80036; stroke-width: 1.5;" width="68" x="51" y="390.3086"/><text fill="#000000" font-family="sans-serif" font-size="12" lengthAdjust="spacingAndGlyphs" textLength="48" x="61" y="411.4473">加密密码</text><rect fill="#FEFECE" filter="url(#f1rfrs6qnal0ww)" height="33.9688" rx="12.5" ry="12.5" style="stroke: #A80036; stroke-width: 1.5;" width="150" x="10" y="459.2773"/><text fill="#000000" font-family="sans-serif" font-size="12" lengthAdjust="spacingAndGlyphs" textLength="130" x="20" y="480.416">调用 DAO 存储用户记录</text><rect fill="#FEFECE" filter="url(#f1rfrs6qnal0ww)" height="33.9688" rx="12.5" ry="12.5" style="stroke: #A80036; stroke-width: 1.5;" width="109" x="223" y="390.3086"/><text fill="#000000" font-family="sans-serif" font-size="12" lengthAdjust="spacingAndGlyphs" textLength="89" x="233" y="411.4473">设置code=602</text><rect fill="#FEFECE" filter="url(#f1rfrs6qnal0ww)" height="33.9688" rx="12.5" ry="12.5" style="stroke: #A80036; stroke-width: 1.5;" width="195" x="180" y="459.2773"/><text fill="#000000" font-family="sans-serif" font-size="12" lengthAdjust="spacingAndGlyphs" textLength="175" x="190" y="480.416">设置message=用户名已经存在</text><ellipse cx="277.5" cy="523.2461" fill="#FFFFFF" filter="url(#f1rfrs6qnal0ww)" rx="10" ry="10" style="stroke: #000000; stroke-width: 1.5;"/><line style="stroke: #000000; stroke-width: 2.5;" x1="271.3128" x2="283.6872" y1="517.0589" y2="529.4333"/><line style="stroke: #000000; stroke-width: 2.5;" x1="283.6872" x2="271.3128" y1="517.0589" y2="529.4333"/><rect fill="#FEFECE" filter="url(#f1rfrs6qnal0ww)" height="33.9688" rx="12.5" ry="12.5" style="stroke: #A80036; stroke-width: 1.5;" width="109" x="442" y="302.3398"/><text fill="#000000" font-family="sans-serif" font-size="12" lengthAdjust="spacingAndGlyphs" textLength="89" x="452" y="323.4785">设置code=601</text><rect fill="#FEFECE" filter="url(#f1rfrs6qnal0ww)" height="33.9688" rx="12.5" ry="12.5" style="stroke: #A80036; stroke-width: 1.5;" width="183" x="405" y="356.3086"/><text fill="#000000" font-family="sans-serif" font-size="12" lengthAdjust="spacingAndGlyphs" textLength="163" x="415" y="377.4473">设置message=密码不能为空</text><ellipse cx="496.5" cy="435.2773" fill="#FFFFFF" filter="url(#f1rfrs6qnal0ww)" rx="10" ry="10" style="stroke: #000000; stroke-width: 1.5;"/><line style="stroke: #000000; stroke-width: 2.5;" x1="490.3128" x2="502.6872" y1="429.0902" y2="441.4645"/><line style="stroke: #000000; stroke-width: 2.5;" x1="502.6872" x2="490.3128" y1="429.0902" y2="441.4645"/><ellipse cx="338.875" cy="564.2461" fill="#FFFFFF" filter="url(#f1rfrs6qnal0ww)" rx="11" ry="11" style="stroke: #000000; stroke-width: 1.0;"/><ellipse cx="338.875" cy="564.2461" fill="#000000" rx="6" ry="6" style="stroke: #7F7F7F; stroke-width: 1.0;"/><line style="stroke: #A80036; stroke-width: 1.5;" x1="338.875" x2="338.875" y1="132.3711" y2="152.3711"/><polygon fill="#A80036" points="334.875,142.3711,338.875,152.3711,342.875,142.3711,338.875,146.3711" style="stroke: #A80036; stroke-width: 1.0;"/><line style="stroke: #A80036; stroke-width: 1.5;" x1="338.875" x2="338.875" y1="186.3398" y2="206.3398"/><polygon fill="#A80036" points="334.875,196.3398,338.875,206.3398,342.875,196.3398,338.875,200.3398" style="stroke: #A80036; stroke-width: 1.0;"/><line style="stroke: #A80036; stroke-width: 1.5;" x1="338.875" x2="338.875" y1="74" y2="98.4023"/><polygon fill="#A80036" points="334.875,88.4023,338.875,98.4023,342.875,88.4023,338.875,92.4023" style="stroke: #A80036; stroke-width: 1.0;"/><line style="stroke: #A80036; stroke-width: 1.5;" x1="378.375" x2="446.375" y1="62" y2="62"/><polygon fill="#A80036" points="442.375,149.3711,446.375,159.3711,450.375,149.3711,446.375,153.3711" style="stroke: #A80036; stroke-width: 1.5;"/><line style="stroke: #A80036; stroke-width: 1.5;" x1="446.375" x2="446.375" y1="62" y2="248.3398"/><line style="stroke: #A80036; stroke-width: 1.5;" x1="446.375" x2="338.875" y1="248.3398" y2="248.3398"/><line style="stroke: #A80036; stroke-width: 1.5;" x1="338.875" x2="338.875" y1="248.3398" y2="268.3398"/><polygon fill="#A80036" points="334.875,258.3398,338.875,268.3398,342.875,258.3398,338.875,262.3398" style="stroke: #A80036; stroke-width: 1.0;"/><line style="stroke: #A80036; stroke-width: 1.5;" x1="338.875" x2="338.875" y1="30" y2="50"/><polygon fill="#A80036" points="334.875,40,338.875,50,342.875,40,338.875,44" style="stroke: #A80036; stroke-width: 1.0;"/><line style="stroke: #A80036; stroke-width: 1.5;" x1="85" x2="85" y1="424.2773" y2="459.2773"/><polygon fill="#A80036" points="81,449.2773,85,459.2773,89,449.2773,85,453.2773" style="stroke: #A80036; stroke-width: 1.0;"/><line style="stroke: #A80036; stroke-width: 1.5;" x1="277.5" x2="277.5" y1="424.2773" y2="459.2773"/><polygon fill="#A80036" points="273.5,449.2773,277.5,459.2773,281.5,449.2773,277.5,453.2773" style="stroke: #A80036; stroke-width: 1.0;"/><line style="stroke: #A80036; stroke-width: 1.5;" x1="277.5" x2="277.5" y1="493.2461" y2="513.2461"/><polygon fill="#A80036" points="273.5,503.2461,277.5,513.2461,281.5,503.2461,277.5,507.2461" style="stroke: #A80036; stroke-width: 1.0;"/><line style="stroke: #A80036; stroke-width: 1.5;" x1="152.75" x2="85" y1="368.3086" y2="368.3086"/><line style="stroke: #A80036; stroke-width: 1.5;" x1="85" x2="85" y1="368.3086" y2="390.3086"/><polygon fill="#A80036" points="81,380.3086,85,390.3086,89,380.3086,85,384.3086" style="stroke: #A80036; stroke-width: 1.0;"/><line style="stroke: #A80036; stroke-width: 1.5;" x1="209.75" x2="277.5" y1="368.3086" y2="368.3086"/><line style="stroke: #A80036; stroke-width: 1.5;" x1="277.5" x2="277.5" y1="368.3086" y2="390.3086"/><polygon fill="#A80036" points="273.5,380.3086,277.5,390.3086,281.5,380.3086,277.5,384.3086" style="stroke: #A80036; stroke-width: 1.0;"/><line style="stroke: #A80036; stroke-width: 1.5;" x1="85" x2="85" y1="493.2461" y2="538.2461"/><line style="stroke: #A80036; stroke-width: 1.5;" x1="85" x2="338.875" y1="538.2461" y2="538.2461"/><line style="stroke: #A80036; stroke-width: 1.5;" x1="338.875" x2="338.875" y1="538.2461" y2="553.2461"/><polygon fill="#A80036" points="334.875,543.2461,338.875,553.2461,342.875,543.2461,338.875,547.2461" style="stroke: #A80036; stroke-width: 1.0;"/><line style="stroke: #A80036; stroke-width: 1.5;" x1="181.25" x2="181.25" y1="336.3086" y2="356.3086"/><polygon fill="#A80036" points="177.25,346.3086,181.25,356.3086,185.25,346.3086,181.25,350.3086" style="stroke: #A80036; stroke-width: 1.0;"/><line style="stroke: #A80036; stroke-width: 1.5;" x1="496.5" x2="496.5" y1="336.3086" y2="356.3086"/><polygon fill="#A80036" points="492.5,346.3086,496.5,356.3086,500.5,346.3086,496.5,350.3086" style="stroke: #A80036; stroke-width: 1.0;"/><line style="stroke: #A80036; stroke-width: 1.5;" x1="496.5" x2="496.5" y1="390.2773" y2="425.2773"/><polygon fill="#A80036" points="492.5,415.2773,496.5,425.2773,500.5,415.2773,496.5,419.2773" style="stroke: #A80036; stroke-width: 1.0;"/><line style="stroke: #A80036; stroke-width: 1.5;" x1="299.375" x2="181.25" y1="280.3398" y2="280.3398"/><line style="stroke: #A80036; stroke-width: 1.5;" x1="181.25" x2="181.25" y1="280.3398" y2="302.3398"/><polygon fill="#A80036" points="177.25,292.3398,181.25,302.3398,185.25,292.3398,181.25,296.3398" style="stroke: #A80036; stroke-width: 1.0;"/><line style="stroke: #A80036; stroke-width: 1.5;" x1="378.375" x2="496.5" y1="280.3398" y2="280.3398"/><line style="stroke: #A80036; stroke-width: 1.5;" x1="496.5" x2="496.5" y1="280.3398" y2="302.3398"/><polygon fill="#A80036" points="492.5,292.3398,496.5,302.3398,500.5,292.3398,496.5,296.3398" style="stroke: #A80036; stroke-width: 1.0;"/></g></svg>