<?xml version="1.0" encoding="UTF-8" standalone="no"?><svg xmlns="http://www.w3.org/2000/svg" xmlns:xlink="http://www.w3.org/1999/xlink" contentScriptType="application/ecmascript" contentStyleType="text/css" height="728px" preserveAspectRatio="none" style="width:767px;height:728px;" version="1.1" viewBox="0 0 767 728" width="767px" zoomAndPan="magnify"><defs><filter height="300%" id="fumeqpy0aod51" width="300%" x="-1" y="-1"><feGaussianBlur result="blurOut" stdDeviation="2.0"/><feColorMatrix in="blurOut" result="blurOut2" type="matrix" values="0 0 0 0 0 0 0 0 0 0 0 0 0 0 0 0 0 0 .4 0"/><feOffset dx="4.0" dy="4.0" in="blurOut2" result="blurOut3"/><feBlend in="SourceGraphic" in2="blurOut3" mode="normal"/></filter></defs><g><ellipse cx="486.5" cy="20" fill="#000000" filter="url(#fumeqpy0aod51)" rx="10" ry="10" style="stroke: none; stroke-width: 1.0;"/><rect fill="#FEFECE" filter="url(#fumeqpy0aod51)" height="33.9688" rx="12.5" ry="12.5" style="stroke: #A80036; stroke-width: 1.5;" width="109" x="432" y="98.4023"/><text fill="#000000" font-family="sans-serif" font-size="12" lengthAdjust="spacingAndGlyphs" textLength="89" x="442" y="119.541">设置code=600</text><rect fill="#FEFECE" filter="url(#fumeqpy0aod51)" height="33.9688" rx="12.5" ry="12.5" style="stroke: #A80036; stroke-width: 1.5;" width="195" x="389" y="152.3711"/><text fill="#000000" font-family="sans-serif" font-size="12" lengthAdjust="spacingAndGlyphs" textLength="175" x="399" y="173.5098">设置message=用户名不能为空</text><ellipse cx="486.5" cy="216.3398" fill="#FFFFFF" filter="url(#fumeqpy0aod51)" rx="10" ry="10" style="stroke: #000000; stroke-width: 1.5;"/><line style="stroke: #000000; stroke-width: 2.5;" x1="480.3128" x2="492.6872" y1="210.1527" y2="222.527"/><line style="stroke: #000000; stroke-width: 2.5;" x1="492.6872" x2="480.3128" y1="210.1527" y2="222.527"/><polygon fill="#FEFECE" filter="url(#fumeqpy0aod51)" points="459,50,514,50,526,62,514,74,459,74,447,62,459,50" style="stroke: #A80036; stroke-width: 1.5;"/><text fill="#000000" font-family="sans-serif" font-size="11" lengthAdjust="spacingAndGlyphs" textLength="23" x="490.5" y="84.2104">true</text><text fill="#000000" font-family="sans-serif" font-size="11" lengthAdjust="spacingAndGlyphs" textLength="55" x="459" y="65.8081">用户名为空</text><polygon fill="#FEFECE" filter="url(#fumeqpy0aod51)" points="459,268.3398,514,268.3398,526,280.3398,514,292.3398,459,292.3398,447,280.3398,459,268.3398" style="stroke: #A80036; stroke-width: 1.5;"/><text fill="#000000" font-family="sans-serif" font-size="11" lengthAdjust="spacingAndGlyphs" textLength="55" x="459" y="284.1479">密码不为空</text><text fill="#000000" font-family="sans-serif" font-size="11" lengthAdjust="spacingAndGlyphs" textLength="23" x="424" y="277.7456">true</text><text fill="#000000" font-family="sans-serif" font-size="11" lengthAdjust="spacingAndGlyphs" textLength="28" x="526" y="277.7456">false</text><rect fill="#FEFECE" filter="url(#fumeqpy0aod51)" height="33.9688" rx="12.5" ry="12.5" style="stroke: #A80036; stroke-width: 1.5;" width="138" x="239.5" y="302.3398"/><text fill="#000000" font-family="sans-serif" font-size="12" lengthAdjust="spacingAndGlyphs" textLength="118" x="249.5" y="323.4785">调用 DAO 用户名判断</text><polygon fill="#FEFECE" filter="url(#fumeqpy0aod51)" points="296.5,356.3086,320.5,356.3086,332.5,368.3086,320.5,380.3086,296.5,380.3086,284.5,368.3086,296.5,356.3086" style="stroke: #A80036; stroke-width: 1.5;"/><text fill="#000000" font-family="sans-serif" font-size="11" lengthAdjust="spacingAndGlyphs" textLength="22" x="297.5" y="372.1167">存在</text><text fill="#000000" font-family="sans-serif" font-size="11" lengthAdjust="spacingAndGlyphs" textLength="23" x="261.5" y="365.7144">true</text><text fill="#000000" font-family="sans-serif" font-size="11" lengthAdjust="spacingAndGlyphs" textLength="28" x="332.5" y="365.7144">false</text><rect fill="#FEFECE" filter="url(#fumeqpy0aod51)" height="33.9688" rx="12.5" ry="12.5" style="stroke: #A80036; stroke-width: 1.5;" width="128" x="101.5" y="390.3086"/><text fill="#000000" font-family="sans-serif" font-size="12" lengthAdjust="spacingAndGlyphs" textLength="108" x="111.5" y="411.4473">加密方法传递的密码</text><rect fill="#FEFECE" filter="url(#fumeqpy0aod51)" height="33.9688" rx="12.5" ry="12.5" style="stroke: #A80036; stroke-width: 1.5;" width="224" x="53.5" y="459.2773"/><text fill="#000000" font-family="sans-serif" font-size="12" lengthAdjust="spacingAndGlyphs" textLength="204" x="63.5" y="480.416">比对加密后的密码和数据库返回的密码</text><polygon fill="#FEFECE" filter="url(#fumeqpy0aod51)" points="143.5,513.2461,187.5,513.2461,199.5,525.2461,187.5,537.2461,143.5,537.2461,131.5,525.2461,143.5,513.2461" style="stroke: #A80036; stroke-width: 1.5;"/><text fill="#000000" font-family="sans-serif" font-size="11" lengthAdjust="spacingAndGlyphs" textLength="44" x="143.5" y="529.0542">密码相同</text><text fill="#000000" font-family="sans-serif" font-size="11" lengthAdjust="spacingAndGlyphs" textLength="23" x="108.5" y="522.6519">true</text><text fill="#000000" font-family="sans-serif" font-size="11" lengthAdjust="spacingAndGlyphs" textLength="28" x="199.5" y="522.6519">false</text><rect fill="#FEFECE" filter="url(#fumeqpy0aod51)" height="33.9688" rx="12.5" ry="12.5" style="stroke: #A80036; stroke-width: 1.5;" width="141" x="10" y="547.2461"/><text fill="#000000" font-family="sans-serif" font-size="12" lengthAdjust="spacingAndGlyphs" textLength="121" x="20" y="568.3848">设置 User 对象并返回</text><rect fill="#FEFECE" filter="url(#fumeqpy0aod51)" height="33.9688" rx="12.5" ry="12.5" style="stroke: #A80036; stroke-width: 1.5;" width="44" x="58.5" y="601.2148"/><text fill="#000000" font-family="sans-serif" font-size="12" lengthAdjust="spacingAndGlyphs" textLength="24" x="68.5" y="622.3535">end</text><rect fill="#FEFECE" filter="url(#fumeqpy0aod51)" height="33.9688" rx="12.5" ry="12.5" style="stroke: #A80036; stroke-width: 1.5;" width="109" x="196" y="547.2461"/><text fill="#000000" font-family="sans-serif" font-size="12" lengthAdjust="spacingAndGlyphs" textLength="89" x="206" y="568.3848">设置code=603</text><rect fill="#FEFECE" filter="url(#fumeqpy0aod51)" height="33.9688" rx="12.5" ry="12.5" style="stroke: #A80036; stroke-width: 1.5;" width="159" x="171" y="601.2148"/><text fill="#000000" font-family="sans-serif" font-size="12" lengthAdjust="spacingAndGlyphs" textLength="139" x="181" y="622.3535">设置message=密码不对</text><ellipse cx="250.5" cy="665.1836" fill="#FFFFFF" filter="url(#fumeqpy0aod51)" rx="10" ry="10" style="stroke: #000000; stroke-width: 1.5;"/><line style="stroke: #000000; stroke-width: 2.5;" x1="244.3128" x2="256.6872" y1="658.9964" y2="671.3708"/><line style="stroke: #000000; stroke-width: 2.5;" x1="256.6872" x2="244.3128" y1="658.9964" y2="671.3708"/><rect fill="#FEFECE" filter="url(#fumeqpy0aod51)" height="33.9688" rx="12.5" ry="12.5" style="stroke: #A80036; stroke-width: 1.5;" width="109" x="397" y="390.3086"/><text fill="#000000" font-family="sans-serif" font-size="12" lengthAdjust="spacingAndGlyphs" textLength="89" x="407" y="411.4473">设置code=602</text><rect fill="#FEFECE" filter="url(#fumeqpy0aod51)" height="33.9688" rx="12.5" ry="12.5" style="stroke: #A80036; stroke-width: 1.5;" width="183" x="360" y="459.2773"/><text fill="#000000" font-family="sans-serif" font-size="12" lengthAdjust="spacingAndGlyphs" textLength="163" x="370" y="480.416">设置message=用户名不存在</text><ellipse cx="451.5" cy="523.2461" fill="#FFFFFF" filter="url(#fumeqpy0aod51)" rx="10" ry="10" style="stroke: #000000; stroke-width: 1.5;"/><line style="stroke: #000000; stroke-width: 2.5;" x1="445.3128" x2="457.6872" y1="517.0589" y2="529.4333"/><line style="stroke: #000000; stroke-width: 2.5;" x1="457.6872" x2="445.3128" y1="517.0589" y2="529.4333"/><rect fill="#FEFECE" filter="url(#fumeqpy0aod51)" height="33.9688" rx="12.5" ry="12.5" style="stroke: #A80036; stroke-width: 1.5;" width="109" x="610" y="302.3398"/><text fill="#000000" font-family="sans-serif" font-size="12" lengthAdjust="spacingAndGlyphs" textLength="89" x="620" y="323.4785">设置code=601</text><rect fill="#FEFECE" filter="url(#fumeqpy0aod51)" height="33.9688" rx="12.5" ry="12.5" style="stroke: #A80036; stroke-width: 1.5;" width="183" x="573" y="356.3086"/><text fill="#000000" font-family="sans-serif" font-size="12" lengthAdjust="spacingAndGlyphs" textLength="163" x="583" y="377.4473">设置message=密码不能为空</text><ellipse cx="664.5" cy="435.2773" fill="#FFFFFF" filter="url(#fumeqpy0aod51)" rx="10" ry="10" style="stroke: #000000; stroke-width: 1.5;"/><line style="stroke: #000000; stroke-width: 2.5;" x1="658.3128" x2="670.6872" y1="429.0902" y2="441.4645"/><line style="stroke: #000000; stroke-width: 2.5;" x1="670.6872" x2="658.3128" y1="429.0902" y2="441.4645"/><ellipse cx="486.5" cy="706.1836" fill="#FFFFFF" filter="url(#fumeqpy0aod51)" rx="11" ry="11" style="stroke: #000000; stroke-width: 1.0;"/><ellipse cx="486.5" cy="706.1836" fill="#000000" rx="6" ry="6" style="stroke: #7F7F7F; stroke-width: 1.0;"/><line style="stroke: #A80036; stroke-width: 1.5;" x1="486.5" x2="486.5" y1="132.3711" y2="152.3711"/><polygon fill="#A80036" points="482.5,142.3711,486.5,152.3711,490.5,142.3711,486.5,146.3711" style="stroke: #A80036; stroke-width: 1.0;"/><line style="stroke: #A80036; stroke-width: 1.5;" x1="486.5" x2="486.5" y1="186.3398" y2="206.3398"/><polygon fill="#A80036" points="482.5,196.3398,486.5,206.3398,490.5,196.3398,486.5,200.3398" style="stroke: #A80036; stroke-width: 1.0;"/><line style="stroke: #A80036; stroke-width: 1.5;" x1="486.5" x2="486.5" y1="74" y2="98.4023"/><polygon fill="#A80036" points="482.5,88.4023,486.5,98.4023,490.5,88.4023,486.5,92.4023" style="stroke: #A80036; stroke-width: 1.0;"/><line style="stroke: #A80036; stroke-width: 1.5;" x1="526" x2="594" y1="62" y2="62"/><polygon fill="#A80036" points="590,149.3711,594,159.3711,598,149.3711,594,153.3711" style="stroke: #A80036; stroke-width: 1.5;"/><line style="stroke: #A80036; stroke-width: 1.5;" x1="594" x2="594" y1="62" y2="248.3398"/><line style="stroke: #A80036; stroke-width: 1.5;" x1="594" x2="486.5" y1="248.3398" y2="248.3398"/><line style="stroke: #A80036; stroke-width: 1.5;" x1="486.5" x2="486.5" y1="248.3398" y2="268.3398"/><polygon fill="#A80036" points="482.5,258.3398,486.5,268.3398,490.5,258.3398,486.5,262.3398" style="stroke: #A80036; stroke-width: 1.0;"/><line style="stroke: #A80036; stroke-width: 1.5;" x1="486.5" x2="486.5" y1="30" y2="50"/><polygon fill="#A80036" points="482.5,40,486.5,50,490.5,40,486.5,44" style="stroke: #A80036; stroke-width: 1.0;"/><line style="stroke: #A80036; stroke-width: 1.5;" x1="165.5" x2="165.5" y1="424.2773" y2="459.2773"/><polygon fill="#A80036" points="161.5,449.2773,165.5,459.2773,169.5,449.2773,165.5,453.2773" style="stroke: #A80036; stroke-width: 1.0;"/><line style="stroke: #A80036; stroke-width: 1.5;" x1="80.5" x2="80.5" y1="581.2148" y2="601.2148"/><polygon fill="#A80036" points="76.5,591.2148,80.5,601.2148,84.5,591.2148,80.5,595.2148" style="stroke: #A80036; stroke-width: 1.0;"/><line style="stroke: #A80036; stroke-width: 1.5;" x1="250.5" x2="250.5" y1="581.2148" y2="601.2148"/><polygon fill="#A80036" points="246.5,591.2148,250.5,601.2148,254.5,591.2148,250.5,595.2148" style="stroke: #A80036; stroke-width: 1.0;"/><line style="stroke: #A80036; stroke-width: 1.5;" x1="250.5" x2="250.5" y1="635.1836" y2="655.1836"/><polygon fill="#A80036" points="246.5,645.1836,250.5,655.1836,254.5,645.1836,250.5,649.1836" style="stroke: #A80036; stroke-width: 1.0;"/><line style="stroke: #A80036; stroke-width: 1.5;" x1="131.5" x2="80.5" y1="525.2461" y2="525.2461"/><line style="stroke: #A80036; stroke-width: 1.5;" x1="80.5" x2="80.5" y1="525.2461" y2="547.2461"/><polygon fill="#A80036" points="76.5,537.2461,80.5,547.2461,84.5,537.2461,80.5,541.2461" style="stroke: #A80036; stroke-width: 1.0;"/><line style="stroke: #A80036; stroke-width: 1.5;" x1="199.5" x2="250.5" y1="525.2461" y2="525.2461"/><line style="stroke: #A80036; stroke-width: 1.5;" x1="250.5" x2="250.5" y1="525.2461" y2="547.2461"/><polygon fill="#A80036" points="246.5,537.2461,250.5,547.2461,254.5,537.2461,250.5,541.2461" style="stroke: #A80036; stroke-width: 1.0;"/><line style="stroke: #A80036; stroke-width: 1.5;" x1="80.5" x2="80.5" y1="635.1836" y2="680.1836"/><line style="stroke: #A80036; stroke-width: 1.5;" x1="80.5" x2="486.5" y1="680.1836" y2="680.1836"/><line style="stroke: #A80036; stroke-width: 1.5;" x1="486.5" x2="486.5" y1="680.1836" y2="695.1836"/><polygon fill="#A80036" points="482.5,685.1836,486.5,695.1836,490.5,685.1836,486.5,689.1836" style="stroke: #A80036; stroke-width: 1.0;"/><line style="stroke: #A80036; stroke-width: 1.5;" x1="165.5" x2="165.5" y1="493.2461" y2="513.2461"/><polygon fill="#A80036" points="161.5,503.2461,165.5,513.2461,169.5,503.2461,165.5,507.2461" style="stroke: #A80036; stroke-width: 1.0;"/><line style="stroke: #A80036; stroke-width: 1.5;" x1="451.5" x2="451.5" y1="424.2773" y2="459.2773"/><polygon fill="#A80036" points="447.5,449.2773,451.5,459.2773,455.5,449.2773,451.5,453.2773" style="stroke: #A80036; stroke-width: 1.0;"/><line style="stroke: #A80036; stroke-width: 1.5;" x1="451.5" x2="451.5" y1="493.2461" y2="513.2461"/><polygon fill="#A80036" points="447.5,503.2461,451.5,513.2461,455.5,503.2461,451.5,507.2461" style="stroke: #A80036; stroke-width: 1.0;"/><line style="stroke: #A80036; stroke-width: 1.5;" x1="284.5" x2="165.5" y1="368.3086" y2="368.3086"/><line style="stroke: #A80036; stroke-width: 1.5;" x1="165.5" x2="165.5" y1="368.3086" y2="390.3086"/><polygon fill="#A80036" points="161.5,380.3086,165.5,390.3086,169.5,380.3086,165.5,384.3086" style="stroke: #A80036; stroke-width: 1.0;"/><line style="stroke: #A80036; stroke-width: 1.5;" x1="332.5" x2="451.5" y1="368.3086" y2="368.3086"/><line style="stroke: #A80036; stroke-width: 1.5;" x1="451.5" x2="451.5" y1="368.3086" y2="390.3086"/><polygon fill="#A80036" points="447.5,380.3086,451.5,390.3086,455.5,380.3086,451.5,384.3086" style="stroke: #A80036; stroke-width: 1.0;"/><line style="stroke: #A80036; stroke-width: 1.5;" x1="308.5" x2="308.5" y1="336.3086" y2="356.3086"/><polygon fill="#A80036" points="304.5,346.3086,308.5,356.3086,312.5,346.3086,308.5,350.3086" style="stroke: #A80036; stroke-width: 1.0;"/><line style="stroke: #A80036; stroke-width: 1.5;" x1="664.5" x2="664.5" y1="336.3086" y2="356.3086"/><polygon fill="#A80036" points="660.5,346.3086,664.5,356.3086,668.5,346.3086,664.5,350.3086" style="stroke: #A80036; stroke-width: 1.0;"/><line style="stroke: #A80036; stroke-width: 1.5;" x1="664.5" x2="664.5" y1="390.2773" y2="425.2773"/><polygon fill="#A80036" points="660.5,415.2773,664.5,425.2773,668.5,415.2773,664.5,419.2773" style="stroke: #A80036; stroke-width: 1.0;"/><line style="stroke: #A80036; stroke-width: 1.5;" x1="447" x2="308.5" y1="280.3398" y2="280.3398"/><line style="stroke: #A80036; stroke-width: 1.5;" x1="308.5" x2="308.5" y1="280.3398" y2="302.3398"/><polygon fill="#A80036" points="304.5,292.3398,308.5,302.3398,312.5,292.3398,308.5,296.3398" style="stroke: #A80036; stroke-width: 1.0;"/><line style="stroke: #A80036; stroke-width: 1.5;" x1="526" x2="664.5" y1="280.3398" y2="280.3398"/><line style="stroke: #A80036; stroke-width: 1.5;" x1="664.5" x2="664.5" y1="280.3398" y2="302.3398"/><polygon fill="#A80036" points="660.5,292.3398,664.5,302.3398,668.5,292.3398,664.5,296.3398" style="stroke: #A80036; stroke-width: 1.0;"/></g></svg>